<mxfile host="app.diagrams.net" agent="Mozilla/5.0 (Macintosh; Intel Mac OS X 10_15_7) AppleWebKit/537.36 (KHTML, like Gecko) Chrome/129.0.0.0 Safari/537.36" modified="2024-10-20T22:26:43.704Z" version="24.4.8" etag="eHPBvbXNraGn9N0Yb7z0" type="device" pages="2">
  <diagram name="ER Model" id="jxQutJva4VOgjA17nLbP">
    <mxGraphModel dx="1038" dy="786" grid="1" gridSize="10" guides="1" tooltips="1" connect="1" arrows="1" fold="1" page="1" pageScale="1" pageWidth="827" pageHeight="1169" math="0" shadow="0">
      <root>
        <mxCell id="0" />
        <mxCell id="1" parent="0" />
        <mxCell id="58jVbacgEDtpRTemTAto-2" value="" style="rounded=0;whiteSpace=wrap;html=1;fillColor=none;strokeColor=#FFFFFF;" vertex="1" parent="1">
          <mxGeometry y="20" width="820" height="1030" as="geometry" />
        </mxCell>
        <mxCell id="zPJmkfToc862tnqb7G8V-2" value="" style="endArrow=ERmandOne;html=1;rounded=0;exitX=0.5;exitY=0;exitDx=0;exitDy=0;entryX=0.5;entryY=1;entryDx=0;entryDy=0;endFill=0;" edge="1" parent="1" source="zPJmkfToc862tnqb7G8V-75" target="7cFye676TPk3neltEL0V-10">
          <mxGeometry width="50" height="50" relative="1" as="geometry">
            <mxPoint x="756" y="590" as="sourcePoint" />
            <mxPoint x="687" y="390" as="targetPoint" />
          </mxGeometry>
        </mxCell>
        <mxCell id="zPJmkfToc862tnqb7G8V-9" value="" style="endArrow=ERmandOne;html=1;rounded=0;exitX=1;exitY=0.5;exitDx=0;exitDy=0;entryX=0;entryY=0.5;entryDx=0;entryDy=0;endFill=0;" edge="1" parent="1" source="zPJmkfToc862tnqb7G8V-50" target="zPJmkfToc862tnqb7G8V-1">
          <mxGeometry width="50" height="50" relative="1" as="geometry">
            <mxPoint x="566" y="841.14" as="sourcePoint" />
            <mxPoint x="616" y="791.14" as="targetPoint" />
            <Array as="points">
              <mxPoint x="480" y="620" />
              <mxPoint x="480" y="730" />
            </Array>
          </mxGeometry>
        </mxCell>
        <mxCell id="zPJmkfToc862tnqb7G8V-16" value="" style="endArrow=ERmandOne;html=1;rounded=0;exitX=1;exitY=0.5;exitDx=0;exitDy=0;entryX=0.5;entryY=1;entryDx=0;entryDy=0;endFill=0;" edge="1" parent="1" source="zPJmkfToc862tnqb7G8V-60" target="zPJmkfToc862tnqb7G8V-1">
          <mxGeometry width="50" height="50" relative="1" as="geometry">
            <mxPoint x="566" y="841.14" as="sourcePoint" />
            <mxPoint x="616" y="791.14" as="targetPoint" />
            <Array as="points">
              <mxPoint x="657" y="900" />
            </Array>
          </mxGeometry>
        </mxCell>
        <mxCell id="zPJmkfToc862tnqb7G8V-22" value="" style="endArrow=ERmandOne;html=1;rounded=0;exitX=0.5;exitY=0;exitDx=0;exitDy=0;entryX=0;entryY=0.5;entryDx=0;entryDy=0;startArrow=none;startFill=0;endFill=0;" edge="1" parent="1" source="zPJmkfToc862tnqb7G8V-70" target="zPJmkfToc862tnqb7G8V-35">
          <mxGeometry width="50" height="50" relative="1" as="geometry">
            <mxPoint x="502" y="640" as="sourcePoint" />
            <mxPoint x="552" y="590" as="targetPoint" />
            <Array as="points">
              <mxPoint x="77" y="180" />
            </Array>
          </mxGeometry>
        </mxCell>
        <mxCell id="zPJmkfToc862tnqb7G8V-25" value="" style="endArrow=ERmandOne;html=1;rounded=0;startArrow=none;startFill=0;endFill=0;entryX=0;entryY=0.5;entryDx=0;entryDy=0;exitX=0.5;exitY=1;exitDx=0;exitDy=0;" edge="1" parent="1" source="zPJmkfToc862tnqb7G8V-77" target="zPJmkfToc862tnqb7G8V-33">
          <mxGeometry width="50" height="50" relative="1" as="geometry">
            <mxPoint x="220" y="384" as="sourcePoint" />
            <mxPoint x="270" y="440" as="targetPoint" />
            <Array as="points">
              <mxPoint x="190" y="520" />
            </Array>
          </mxGeometry>
        </mxCell>
        <mxCell id="zPJmkfToc862tnqb7G8V-46" value="" style="endArrow=none;html=1;rounded=0;exitX=1;exitY=0.5;exitDx=0;exitDy=0;startArrow=none;startFill=0;entryX=0.5;entryY=0;entryDx=0;entryDy=0;" edge="1" parent="1" source="zPJmkfToc862tnqb7G8V-126" target="7cFye676TPk3neltEL0V-10">
          <mxGeometry width="50" height="50" relative="1" as="geometry">
            <mxPoint x="359" y="410" as="sourcePoint" />
            <mxPoint x="657" y="330" as="targetPoint" />
            <Array as="points">
              <mxPoint x="657" y="180" />
            </Array>
          </mxGeometry>
        </mxCell>
        <mxCell id="7cFye676TPk3neltEL0V-3" value="(2, 2)" style="edgeLabel;html=1;align=center;verticalAlign=middle;resizable=0;points=[];" vertex="1" connectable="0" parent="zPJmkfToc862tnqb7G8V-46">
          <mxGeometry x="0.8667" y="1" relative="1" as="geometry">
            <mxPoint as="offset" />
          </mxGeometry>
        </mxCell>
        <mxCell id="zPJmkfToc862tnqb7G8V-51" value="" style="endArrow=none;html=1;rounded=0;exitX=1;exitY=0.5;exitDx=0;exitDy=0;entryX=0.5;entryY=1;entryDx=0;entryDy=0;startArrow=ERzeroToMany;startFill=0;strokeWidth=2;" edge="1" parent="1" source="zPJmkfToc862tnqb7G8V-8" target="zPJmkfToc862tnqb7G8V-50">
          <mxGeometry width="50" height="50" relative="1" as="geometry">
            <mxPoint x="359" y="731.14" as="sourcePoint" />
            <mxPoint x="636" y="730.14" as="targetPoint" />
            <Array as="points">
              <mxPoint x="310" y="730" />
            </Array>
          </mxGeometry>
        </mxCell>
        <mxCell id="zPJmkfToc862tnqb7G8V-50" value="Acontecer" style="rhombus;whiteSpace=wrap;html=1;shadow=1;fillColor=#e1d5e7;strokeColor=#9673a6;" vertex="1" parent="1">
          <mxGeometry x="250" y="600" width="120" height="40" as="geometry" />
        </mxCell>
        <mxCell id="zPJmkfToc862tnqb7G8V-61" value="" style="endArrow=none;html=1;rounded=0;exitX=0.5;exitY=0;exitDx=0;exitDy=0;entryX=0.5;entryY=1;entryDx=0;entryDy=0;strokeWidth=2;endFill=0;startArrow=ERmandOne;startFill=0;" edge="1" parent="1" source="zPJmkfToc862tnqb7G8V-15" target="zPJmkfToc862tnqb7G8V-60">
          <mxGeometry width="50" height="50" relative="1" as="geometry">
            <mxPoint x="653.5" y="931.14" as="sourcePoint" />
            <mxPoint x="653.5" y="800.14" as="targetPoint" />
          </mxGeometry>
        </mxCell>
        <mxCell id="zPJmkfToc862tnqb7G8V-60" value="Possuir" style="rhombus;whiteSpace=wrap;html=1;shadow=1;fillColor=#e1d5e7;strokeColor=#9673a6;" vertex="1" parent="1">
          <mxGeometry x="320" y="880" width="120" height="40" as="geometry" />
        </mxCell>
        <mxCell id="zPJmkfToc862tnqb7G8V-71" value="" style="endArrow=none;html=1;rounded=0;exitX=0.5;exitY=0;exitDx=0;exitDy=0;entryX=0.5;entryY=1;entryDx=0;entryDy=0;startArrow=ERmandOne;startFill=0;endFill=0;fontStyle=1;strokeWidth=2;" edge="1" parent="1" source="zPJmkfToc862tnqb7G8V-18" target="zPJmkfToc862tnqb7G8V-70">
          <mxGeometry width="50" height="50" relative="1" as="geometry">
            <mxPoint x="77" y="631" as="sourcePoint" />
            <mxPoint x="239" y="410" as="targetPoint" />
            <Array as="points" />
          </mxGeometry>
        </mxCell>
        <mxCell id="zPJmkfToc862tnqb7G8V-70" value="Gerar" style="rhombus;whiteSpace=wrap;html=1;shadow=1;fillColor=#e1d5e7;strokeColor=#9673a6;" vertex="1" parent="1">
          <mxGeometry x="17" y="840" width="120" height="40" as="geometry" />
        </mxCell>
        <mxCell id="zPJmkfToc862tnqb7G8V-78" value="" style="endArrow=none;html=1;rounded=0;entryX=0.5;entryY=0;entryDx=0;entryDy=0;exitX=0.5;exitY=1;exitDx=0;exitDy=0;startArrow=ERzeroToMany;startFill=0;" edge="1" parent="1" source="zPJmkfToc862tnqb7G8V-35" target="zPJmkfToc862tnqb7G8V-77">
          <mxGeometry width="50" height="50" relative="1" as="geometry">
            <mxPoint x="298.5" y="350" as="sourcePoint" />
            <mxPoint x="299" y="220" as="targetPoint" />
            <Array as="points" />
          </mxGeometry>
        </mxCell>
        <mxCell id="zPJmkfToc862tnqb7G8V-77" value="Acontecer" style="rhombus;whiteSpace=wrap;html=1;shadow=1;fillColor=#e1d5e7;strokeColor=#9673a6;" vertex="1" parent="1">
          <mxGeometry x="130" y="340" width="120" height="40" as="geometry" />
        </mxCell>
        <mxCell id="zPJmkfToc862tnqb7G8V-82" value="" style="endArrow=ERmandOne;html=1;rounded=0;entryX=1;entryY=0.5;entryDx=0;entryDy=0;exitX=0;exitY=0.5;exitDx=0;exitDy=0;endFill=0;startArrow=none;startFill=0;" edge="1" parent="1" source="zPJmkfToc862tnqb7G8V-83" target="zPJmkfToc862tnqb7G8V-33">
          <mxGeometry width="50" height="50" relative="1" as="geometry">
            <mxPoint x="427" y="270" as="sourcePoint" />
            <mxPoint x="477" y="220" as="targetPoint" />
            <Array as="points" />
          </mxGeometry>
        </mxCell>
        <mxCell id="zPJmkfToc862tnqb7G8V-92" value="" style="endArrow=ERmandOne;html=1;rounded=0;exitX=0;exitY=0.5;exitDx=0;exitDy=0;entryX=1;entryY=0.5;entryDx=0;entryDy=0;strokeWidth=2;endFill=0;" edge="1" parent="1" source="zPJmkfToc862tnqb7G8V-97" target="zPJmkfToc862tnqb7G8V-90">
          <mxGeometry width="50" height="50" relative="1" as="geometry">
            <mxPoint x="796" y="400" as="sourcePoint" />
            <mxPoint x="407" y="100" as="targetPoint" />
          </mxGeometry>
        </mxCell>
        <mxCell id="zPJmkfToc862tnqb7G8V-95" value="" style="endArrow=none;html=1;rounded=0;entryX=0.5;entryY=1;entryDx=0;entryDy=0;exitX=0.75;exitY=0;exitDx=0;exitDy=0;startArrow=ERmandOne;startFill=0;" edge="1" parent="1" target="zPJmkfToc862tnqb7G8V-97" source="7cFye676TPk3neltEL0V-10">
          <mxGeometry width="50" height="50" relative="1" as="geometry">
            <mxPoint x="687" y="330" as="sourcePoint" />
            <mxPoint x="996" y="390" as="targetPoint" />
          </mxGeometry>
        </mxCell>
        <mxCell id="zPJmkfToc862tnqb7G8V-97" value="Possuir" style="rhombus;whiteSpace=wrap;html=1;shadow=1;fillColor=#e1d5e7;strokeColor=#9673a6;" vertex="1" parent="1">
          <mxGeometry x="627" y="40" width="120" height="40" as="geometry" />
        </mxCell>
        <mxCell id="zPJmkfToc862tnqb7G8V-99" value="" style="endArrow=none;html=1;rounded=0;entryX=0.5;entryY=1;entryDx=0;entryDy=0;endFill=0;startArrow=ERmany;startFill=0;exitX=0.5;exitY=0;exitDx=0;exitDy=0;" edge="1" parent="1" source="zPJmkfToc862tnqb7G8V-1" target="zPJmkfToc862tnqb7G8V-75">
          <mxGeometry width="50" height="50" relative="1" as="geometry">
            <mxPoint x="640" y="690" as="sourcePoint" />
            <mxPoint x="657" y="440" as="targetPoint" />
          </mxGeometry>
        </mxCell>
        <mxCell id="zPJmkfToc862tnqb7G8V-75" value="Possuir" style="rhombus;whiteSpace=wrap;html=1;shadow=1;fillColor=#e1d5e7;strokeColor=#9673a6;" vertex="1" parent="1">
          <mxGeometry x="597" y="620" width="120" height="40" as="geometry" />
        </mxCell>
        <mxCell id="zPJmkfToc862tnqb7G8V-108" value="" style="endArrow=ERmandOne;html=1;rounded=0;exitX=1;exitY=0.5;exitDx=0;exitDy=0;startArrow=none;startFill=0;endFill=0;entryX=0.25;entryY=0;entryDx=0;entryDy=0;" edge="1" parent="1" source="zPJmkfToc862tnqb7G8V-132" target="7cFye676TPk3neltEL0V-10">
          <mxGeometry width="50" height="50" relative="1" as="geometry">
            <mxPoint x="537" y="570" as="sourcePoint" />
            <mxPoint x="626.9999999999999" y="330" as="targetPoint" />
            <Array as="points">
              <mxPoint x="627" y="250" />
            </Array>
          </mxGeometry>
        </mxCell>
        <mxCell id="zPJmkfToc862tnqb7G8V-109" value="" style="endArrow=none;html=1;rounded=0;entryX=0.5;entryY=1;entryDx=0;entryDy=0;exitX=0.5;exitY=0;exitDx=0;exitDy=0;startArrow=ERmandOne;startFill=0;endFill=0;strokeWidth=2;" edge="1" parent="1" source="zPJmkfToc862tnqb7G8V-111" target="zPJmkfToc862tnqb7G8V-132">
          <mxGeometry width="50" height="50" relative="1" as="geometry">
            <mxPoint x="317" y="490" as="sourcePoint" />
            <mxPoint x="497" y="520" as="targetPoint" />
          </mxGeometry>
        </mxCell>
        <mxCell id="zPJmkfToc862tnqb7G8V-127" value="" style="endArrow=none;html=1;rounded=0;exitX=1;exitY=0.5;exitDx=0;exitDy=0;entryX=0;entryY=0.5;entryDx=0;entryDy=0;startArrow=ERoneToMany;startFill=0;" edge="1" parent="1" source="zPJmkfToc862tnqb7G8V-35" target="zPJmkfToc862tnqb7G8V-126">
          <mxGeometry width="50" height="50" relative="1" as="geometry">
            <mxPoint x="359" y="410" as="sourcePoint" />
            <mxPoint x="597" y="410" as="targetPoint" />
          </mxGeometry>
        </mxCell>
        <mxCell id="zPJmkfToc862tnqb7G8V-126" value="Participar" style="rhombus;whiteSpace=wrap;html=1;shadow=1;fillColor=#e1d5e7;strokeColor=#9673a6;" vertex="1" parent="1">
          <mxGeometry x="353.5" y="160" width="120" height="40" as="geometry" />
        </mxCell>
        <mxCell id="zPJmkfToc862tnqb7G8V-132" value="Gerar" style="rhombus;whiteSpace=wrap;html=1;shadow=1;fillColor=#e1d5e7;strokeColor=#9673a6;" vertex="1" parent="1">
          <mxGeometry x="353.5" y="230" width="120" height="40" as="geometry" />
        </mxCell>
        <mxCell id="zPJmkfToc862tnqb7G8V-134" value="" style="endArrow=ERmandOne;html=1;rounded=0;exitX=0;exitY=0.5;exitDx=0;exitDy=0;endFill=0;entryX=0.75;entryY=1;entryDx=0;entryDy=0;" edge="1" parent="1" source="zPJmkfToc862tnqb7G8V-132" target="zPJmkfToc862tnqb7G8V-35">
          <mxGeometry width="50" height="50" relative="1" as="geometry">
            <mxPoint x="357" y="620" as="sourcePoint" />
            <mxPoint x="340" y="220" as="targetPoint" />
            <Array as="points">
              <mxPoint x="220" y="250" />
            </Array>
          </mxGeometry>
        </mxCell>
        <mxCell id="zPJmkfToc862tnqb7G8V-135" value="" style="endArrow=ERmandOne;html=1;rounded=0;entryX=0.25;entryY=1;entryDx=0;entryDy=0;exitX=1;exitY=0.5;exitDx=0;exitDy=0;startArrow=none;startFill=0;endFill=0;" edge="1" parent="1" source="zPJmkfToc862tnqb7G8V-70" target="zPJmkfToc862tnqb7G8V-1">
          <mxGeometry width="50" height="50" relative="1" as="geometry">
            <mxPoint x="537" y="841.1399999999999" as="sourcePoint" />
            <mxPoint x="497" y="690" as="targetPoint" />
            <Array as="points">
              <mxPoint x="627" y="860" />
            </Array>
          </mxGeometry>
        </mxCell>
        <mxCell id="zPJmkfToc862tnqb7G8V-146" value="" style="group" vertex="1" connectable="0" parent="1">
          <mxGeometry x="17" y="960" width="120" height="90" as="geometry" />
        </mxCell>
        <mxCell id="zPJmkfToc862tnqb7G8V-18" value="&lt;font style=&quot;font-size: 10px;&quot;&gt;Estatística do Jogador&amp;nbsp;&lt;/font&gt;&lt;div&gt;&lt;font style=&quot;font-size: 10px;&quot;&gt;em um Jogo&lt;/font&gt;&lt;/div&gt;" style="rounded=0;whiteSpace=wrap;html=1;glass=0;shadow=1;fillColor=#fff2cc;strokeColor=#d6b656;" vertex="1" parent="zPJmkfToc862tnqb7G8V-146">
          <mxGeometry width="120" height="60" as="geometry" />
        </mxCell>
        <mxCell id="zPJmkfToc862tnqb7G8V-32" value="&lt;b&gt;&lt;font color=&quot;#b3b3b3&quot; style=&quot;font-size: 9px;&quot;&gt;SG&lt;/font&gt;&lt;span style=&quot;font-size: 9px; color: rgb(179, 179, 179); background-color: initial;&quot;&gt;PlayerStatistics&lt;/span&gt;&lt;/b&gt;" style="text;html=1;align=center;verticalAlign=middle;whiteSpace=wrap;rounded=0;" vertex="1" parent="zPJmkfToc862tnqb7G8V-146">
          <mxGeometry y="60" width="120" height="20" as="geometry" />
        </mxCell>
        <mxCell id="zPJmkfToc862tnqb7G8V-147" value="" style="group" vertex="1" connectable="0" parent="1">
          <mxGeometry x="320" y="960" width="120" height="90" as="geometry" />
        </mxCell>
        <mxCell id="zPJmkfToc862tnqb7G8V-15" value="&lt;font size=&quot;1&quot; style=&quot;&quot;&gt;Estatística Geral do Jogador na Premier League&lt;/font&gt;" style="rounded=0;whiteSpace=wrap;html=1;shadow=1;fillColor=#fff2cc;strokeColor=#d6b656;" vertex="1" parent="zPJmkfToc862tnqb7G8V-147">
          <mxGeometry width="120" height="60" as="geometry" />
        </mxCell>
        <mxCell id="zPJmkfToc862tnqb7G8V-148" value="" style="group" vertex="1" connectable="0" parent="1">
          <mxGeometry x="130" y="700" width="120" height="80" as="geometry" />
        </mxCell>
        <mxCell id="zPJmkfToc862tnqb7G8V-8" value="Ferimento" style="rounded=0;whiteSpace=wrap;html=1;movable=1;resizable=1;rotatable=1;deletable=1;editable=1;locked=0;connectable=1;shadow=1;fillColor=#fff2cc;strokeColor=#d6b656;" vertex="1" parent="zPJmkfToc862tnqb7G8V-148">
          <mxGeometry width="120" height="60" as="geometry" />
        </mxCell>
        <mxCell id="zPJmkfToc862tnqb7G8V-29" value="&lt;font color=&quot;#b3b3b3&quot; style=&quot;font-size: 9px;&quot;&gt;&lt;b&gt;Injuries&lt;/b&gt;&lt;/font&gt;" style="text;html=1;align=center;verticalAlign=middle;whiteSpace=wrap;rounded=0;" vertex="1" parent="zPJmkfToc862tnqb7G8V-148">
          <mxGeometry x="35.5" y="60" width="49" height="20" as="geometry" />
        </mxCell>
        <mxCell id="zPJmkfToc862tnqb7G8V-150" value="" style="group" vertex="1" connectable="0" parent="1">
          <mxGeometry x="353.5" y="330" width="120" height="89" as="geometry" />
        </mxCell>
        <mxCell id="zPJmkfToc862tnqb7G8V-111" value="&lt;font style=&quot;font-size: 10px;&quot;&gt;Estatística do Time&amp;nbsp;&lt;/font&gt;&lt;div&gt;&lt;font style=&quot;font-size: 10px;&quot;&gt;em&amp;nbsp;&lt;/font&gt;&lt;span style=&quot;font-size: 10px; background-color: initial;&quot;&gt;um Jogo&lt;/span&gt;&lt;/div&gt;" style="rounded=0;whiteSpace=wrap;html=1;align=center;container=0;shadow=1;fillColor=#fff2cc;strokeColor=#d6b656;" vertex="1" parent="zPJmkfToc862tnqb7G8V-150">
          <mxGeometry width="120" height="60" as="geometry" />
        </mxCell>
        <mxCell id="zPJmkfToc862tnqb7G8V-112" value="&lt;b&gt;&lt;font color=&quot;#b3b3b3&quot; style=&quot;font-size: 9px;&quot;&gt;SG&lt;/font&gt;&lt;span style=&quot;font-size: 9px; color: rgb(179, 179, 179); background-color: initial;&quot;&gt;TeamStatistics&lt;/span&gt;&lt;/b&gt;" style="text;html=1;align=center;verticalAlign=middle;whiteSpace=wrap;rounded=0;container=0;" vertex="1" parent="zPJmkfToc862tnqb7G8V-150">
          <mxGeometry y="69" width="120" height="20" as="geometry" />
        </mxCell>
        <mxCell id="zPJmkfToc862tnqb7G8V-151" value="" style="group" vertex="1" connectable="0" parent="1">
          <mxGeometry x="130" y="150" width="120" height="80" as="geometry" />
        </mxCell>
        <mxCell id="zPJmkfToc862tnqb7G8V-35" value="Jogo" style="rounded=0;whiteSpace=wrap;html=1;shadow=1;fillColor=#dae8fc;strokeColor=#6c8ebf;" vertex="1" parent="zPJmkfToc862tnqb7G8V-151">
          <mxGeometry width="120" height="60" as="geometry" />
        </mxCell>
        <mxCell id="zPJmkfToc862tnqb7G8V-37" value="&lt;font size=&quot;1&quot; color=&quot;#b3b3b3&quot;&gt;&lt;b&gt;Game&lt;/b&gt;&lt;/font&gt;" style="text;html=1;align=center;verticalAlign=middle;whiteSpace=wrap;rounded=0;" vertex="1" parent="zPJmkfToc862tnqb7G8V-151">
          <mxGeometry x="100" y="60" width="29" height="20" as="geometry" />
        </mxCell>
        <mxCell id="zPJmkfToc862tnqb7G8V-152" value="" style="group;shadow=1;" vertex="1" connectable="0" parent="1">
          <mxGeometry x="597" y="330" width="120" height="80" as="geometry" />
        </mxCell>
        <mxCell id="zPJmkfToc862tnqb7G8V-39" value="&lt;font color=&quot;#b3b3b3&quot; style=&quot;font-size: 9px;&quot;&gt;&lt;b&gt;Team&lt;/b&gt;&lt;/font&gt;" style="text;html=1;align=center;verticalAlign=middle;whiteSpace=wrap;rounded=0;" vertex="1" parent="zPJmkfToc862tnqb7G8V-152">
          <mxGeometry x="91" y="60" width="29" height="20" as="geometry" />
        </mxCell>
        <mxCell id="7cFye676TPk3neltEL0V-10" value="Time" style="rounded=0;whiteSpace=wrap;html=1;fillColor=#dae8fc;strokeColor=#6c8ebf;shadow=1;" vertex="1" parent="zPJmkfToc862tnqb7G8V-152">
          <mxGeometry width="120" height="60" as="geometry" />
        </mxCell>
        <mxCell id="zPJmkfToc862tnqb7G8V-153" value="" style="group" vertex="1" connectable="0" parent="1">
          <mxGeometry x="353.5" y="490" width="120" height="80" as="geometry" />
        </mxCell>
        <mxCell id="zPJmkfToc862tnqb7G8V-33" value="Estádio" style="rounded=0;whiteSpace=wrap;html=1;shadow=1;fillColor=#dae8fc;strokeColor=#6c8ebf;" vertex="1" parent="zPJmkfToc862tnqb7G8V-153">
          <mxGeometry width="120" height="60" as="geometry" />
        </mxCell>
        <mxCell id="zPJmkfToc862tnqb7G8V-34" value="&lt;font color=&quot;#b3b3b3&quot; style=&quot;font-size: 9px;&quot;&gt;Venue&lt;/font&gt;" style="text;html=1;align=center;verticalAlign=middle;whiteSpace=wrap;rounded=0;" vertex="1" parent="zPJmkfToc862tnqb7G8V-153">
          <mxGeometry x="45.5" y="60" width="29" height="20" as="geometry" />
        </mxCell>
        <mxCell id="zPJmkfToc862tnqb7G8V-154" value="" style="group" vertex="1" connectable="0" parent="1">
          <mxGeometry x="353.5" y="30" width="120" height="90" as="geometry" />
        </mxCell>
        <mxCell id="zPJmkfToc862tnqb7G8V-90" value="&lt;font size=&quot;1&quot; style=&quot;&quot;&gt;Estatística Geral do Time na Premier League&lt;/font&gt;" style="rounded=0;whiteSpace=wrap;html=1;shadow=1;fillColor=#fff2cc;strokeColor=#d6b656;" vertex="1" parent="zPJmkfToc862tnqb7G8V-154">
          <mxGeometry width="120" height="60" as="geometry" />
        </mxCell>
        <mxCell id="QQ5SJOnIpr6Hq0f2hhhU-4" value="" style="endArrow=ERoneToMany;html=1;rounded=0;exitX=0.5;exitY=0;exitDx=0;exitDy=0;endFill=0;entryX=1;entryY=0.5;entryDx=0;entryDy=0;" edge="1" parent="1" source="QQ5SJOnIpr6Hq0f2hhhU-5" target="7cFye676TPk3neltEL0V-10">
          <mxGeometry width="50" height="50" relative="1" as="geometry">
            <mxPoint x="687" y="580" as="sourcePoint" />
            <mxPoint x="717" y="360" as="targetPoint" />
            <Array as="points">
              <mxPoint x="750" y="360" />
            </Array>
          </mxGeometry>
        </mxCell>
        <mxCell id="QQ5SJOnIpr6Hq0f2hhhU-5" value="&lt;font style=&quot;font-size: 10px;&quot;&gt;Histórico Times&lt;/font&gt;" style="rhombus;whiteSpace=wrap;html=1;shadow=1;fillColor=#e1d5e7;strokeColor=#9673a6;" vertex="1" parent="1">
          <mxGeometry x="690" y="500" width="120" height="40" as="geometry" />
        </mxCell>
        <mxCell id="QQ5SJOnIpr6Hq0f2hhhU-7" value="" style="endArrow=none;html=1;rounded=0;entryX=0.5;entryY=1;entryDx=0;entryDy=0;exitX=1;exitY=0.5;exitDx=0;exitDy=0;startArrow=ERmany;startFill=0;" edge="1" parent="1" source="zPJmkfToc862tnqb7G8V-1" target="QQ5SJOnIpr6Hq0f2hhhU-5">
          <mxGeometry width="50" height="50" relative="1" as="geometry">
            <mxPoint x="677" y="590" as="sourcePoint" />
            <mxPoint x="727" y="540" as="targetPoint" />
            <Array as="points">
              <mxPoint x="750" y="730" />
            </Array>
          </mxGeometry>
        </mxCell>
        <mxCell id="zPJmkfToc862tnqb7G8V-1" value="Jogador" style="rounded=0;whiteSpace=wrap;html=1;movable=1;resizable=1;rotatable=1;deletable=1;editable=1;locked=0;connectable=1;shadow=1;fillColor=#dae8fc;strokeColor=#6c8ebf;" vertex="1" parent="1">
          <mxGeometry x="597" y="700" width="120" height="60" as="geometry" />
        </mxCell>
        <mxCell id="zPJmkfToc862tnqb7G8V-28" value="&lt;font color=&quot;#b3b3b3&quot; style=&quot;font-size: 9px;&quot;&gt;&lt;b&gt;Player&lt;/b&gt;&lt;/font&gt;" style="text;html=1;align=center;verticalAlign=middle;whiteSpace=wrap;rounded=0;" vertex="1" parent="1">
          <mxGeometry x="678" y="760" width="39" height="20" as="geometry" />
        </mxCell>
        <mxCell id="7cFye676TPk3neltEL0V-1" value="" style="endArrow=none;html=1;rounded=0;entryX=1;entryY=0.5;entryDx=0;entryDy=0;exitX=0.25;exitY=1;exitDx=0;exitDy=0;endFill=0;startArrow=ERmandOne;startFill=0;" edge="1" parent="1" source="7cFye676TPk3neltEL0V-10" target="zPJmkfToc862tnqb7G8V-83">
          <mxGeometry width="50" height="50" relative="1" as="geometry">
            <mxPoint x="626.9999999999999" y="390" as="sourcePoint" />
            <mxPoint x="484" y="350" as="targetPoint" />
            <Array as="points">
              <mxPoint x="627" y="460" />
            </Array>
          </mxGeometry>
        </mxCell>
        <mxCell id="zPJmkfToc862tnqb7G8V-83" value="Casa" style="rhombus;whiteSpace=wrap;html=1;shadow=1;fillColor=#e1d5e7;strokeColor=#9673a6;" vertex="1" parent="1">
          <mxGeometry x="507" y="500" width="120" height="40" as="geometry" />
        </mxCell>
        <mxCell id="AUCpcyUwawJQWtJlkTK4-4" value="&lt;font style=&quot;font-size: 9px;&quot;&gt;Temporadas&lt;/font&gt;" style="text;html=1;align=center;verticalAlign=middle;whiteSpace=wrap;rounded=0;" vertex="1" parent="1">
          <mxGeometry x="698" y="550" width="40" height="20" as="geometry" />
        </mxCell>
        <mxCell id="AUCpcyUwawJQWtJlkTK4-6" value="&lt;font color=&quot;#b3b3b3&quot; style=&quot;font-size: 9px;&quot;&gt;&lt;b&gt;TeamsHistoric&lt;/b&gt;&lt;/font&gt;" style="text;html=1;align=center;verticalAlign=middle;whiteSpace=wrap;rounded=0;" vertex="1" parent="1">
          <mxGeometry x="770" y="490" width="33" height="10" as="geometry" />
        </mxCell>
        <mxCell id="l_IumXTMkHkDTShPmaJM-2" value="&lt;div style=&quot;text-wrap-mode: nowrap; font-size: 10px;&quot;&gt;&lt;br&gt;&lt;/div&gt;" style="rounded=1;whiteSpace=wrap;html=1;align=left;" vertex="1" parent="1">
          <mxGeometry x="500" y="885" width="90" height="30" as="geometry" />
        </mxCell>
        <mxCell id="l_IumXTMkHkDTShPmaJM-4" value="&lt;font style=&quot;font-size: 10px;&quot;&gt;Cardinalidade 1:1&lt;/font&gt;&lt;div&gt;&lt;font style=&quot;font-size: 10px;&quot;&gt;Fundir&lt;/font&gt;&lt;/div&gt;" style="text;html=1;align=center;verticalAlign=middle;whiteSpace=wrap;rounded=0;" vertex="1" parent="1">
          <mxGeometry x="500" y="885" width="90" height="30" as="geometry" />
        </mxCell>
        <mxCell id="l_IumXTMkHkDTShPmaJM-13" value="&lt;div style=&quot;text-wrap-mode: nowrap; font-size: 10px;&quot;&gt;&lt;br&gt;&lt;/div&gt;" style="rounded=1;whiteSpace=wrap;html=1;align=left;" vertex="1" parent="1">
          <mxGeometry x="642" y="110" width="90" height="30" as="geometry" />
        </mxCell>
        <mxCell id="l_IumXTMkHkDTShPmaJM-14" value="&lt;font style=&quot;font-size: 10px;&quot;&gt;Cardinalidade 1:1&lt;/font&gt;&lt;div&gt;&lt;font style=&quot;font-size: 10px;&quot;&gt;Fundir&lt;/font&gt;&lt;/div&gt;" style="text;html=1;align=center;verticalAlign=middle;whiteSpace=wrap;rounded=0;" vertex="1" parent="1">
          <mxGeometry x="642" y="110" width="90" height="30" as="geometry" />
        </mxCell>
        <mxCell id="l_IumXTMkHkDTShPmaJM-15" value="&lt;div style=&quot;text-wrap-mode: nowrap; font-size: 10px;&quot;&gt;&lt;br&gt;&lt;/div&gt;" style="rounded=1;whiteSpace=wrap;html=1;align=left;" vertex="1" parent="1">
          <mxGeometry x="705" y="430" width="90" height="30" as="geometry" />
        </mxCell>
        <mxCell id="l_IumXTMkHkDTShPmaJM-37" value="" style="endArrow=none;html=1;rounded=0;entryX=0;entryY=1;entryDx=0;entryDy=0;startArrow=oval;startFill=1;startSize=2;" edge="1" parent="1" target="QQ5SJOnIpr6Hq0f2hhhU-5">
          <mxGeometry width="50" height="50" relative="1" as="geometry">
            <mxPoint x="720" y="556" as="sourcePoint" />
            <mxPoint x="717.5" y="528" as="targetPoint" />
          </mxGeometry>
        </mxCell>
        <mxCell id="kwO4lFhmBdTykF2GIFlN-1" value="&lt;font style=&quot;font-size: 10px;&quot;&gt;Cardinalidade n:n&lt;/font&gt;&lt;div&gt;&lt;font style=&quot;font-size: 10px;&quot;&gt;Nova tabela&lt;/font&gt;&lt;/div&gt;" style="text;html=1;align=center;verticalAlign=middle;whiteSpace=wrap;rounded=0;" vertex="1" parent="1">
          <mxGeometry x="705" y="430" width="90" height="30" as="geometry" />
        </mxCell>
        <mxCell id="Q6ovT2bAMBSCi8j5CCI4-2" value="" style="endArrow=ERmandOne;html=1;rounded=0;exitX=0;exitY=0.5;exitDx=0;exitDy=0;entryX=0;entryY=0.75;entryDx=0;entryDy=0;startArrow=none;startFill=0;endFill=0;strokeWidth=1;" edge="1" parent="1" source="zPJmkfToc862tnqb7G8V-50" target="zPJmkfToc862tnqb7G8V-35">
          <mxGeometry width="50" height="50" relative="1" as="geometry">
            <mxPoint x="140" y="670" as="sourcePoint" />
            <mxPoint x="190" y="620" as="targetPoint" />
            <Array as="points">
              <mxPoint x="110" y="620" />
              <mxPoint x="110" y="410" />
              <mxPoint x="110" y="195" />
            </Array>
          </mxGeometry>
        </mxCell>
      </root>
    </mxGraphModel>
  </diagram>
  <diagram id="pyQwCKMmMMSkU7PGIuj_" name="Mapping Entity to Endpoint">
    <mxGraphModel dx="1194" dy="638" grid="1" gridSize="10" guides="1" tooltips="1" connect="1" arrows="1" fold="1" page="1" pageScale="1" pageWidth="827" pageHeight="1169" math="0" shadow="0">
      <root>
        <mxCell id="0" />
        <mxCell id="1" parent="0" />
        <mxCell id="ohVzk12qOF8JnCY6avkX-15" value="" style="group" parent="1" vertex="1" connectable="0">
          <mxGeometry x="40" y="97.5" width="780" height="782.5" as="geometry" />
        </mxCell>
        <mxCell id="Q5s80DPNSSyLN-fSbm4z-48" value="" style="group;movable=1;resizable=1;rotatable=1;deletable=1;editable=1;locked=0;connectable=1;" parent="ohVzk12qOF8JnCY6avkX-15" vertex="1" connectable="0">
          <mxGeometry y="2.4684542586750786" width="780" height="780.0315457413249" as="geometry" />
        </mxCell>
        <mxCell id="kOVCS-gI3BIczmyBVYB0-1" value="" style="rounded=0;whiteSpace=wrap;html=1;fillColor=none;strokeColor=#FFFFFF;" parent="Q5s80DPNSSyLN-fSbm4z-48" vertex="1">
          <mxGeometry x="-30" y="-40" width="810" height="820.03" as="geometry" />
        </mxCell>
        <mxCell id="Q5s80DPNSSyLN-fSbm4z-51" value="&lt;font color=&quot;#b3b3b3&quot; style=&quot;font-size: 9px;&quot;&gt;&lt;b&gt;Team&lt;/b&gt;&lt;/font&gt;" style="text;html=1;align=center;verticalAlign=middle;whiteSpace=wrap;rounded=0;" parent="Q5s80DPNSSyLN-fSbm4z-48" vertex="1">
          <mxGeometry x="45.5" y="59.24290220820189" width="29" height="19.74763406940063" as="geometry" />
        </mxCell>
        <mxCell id="p8FZmcjDatMxW2oeOjET-4" value="" style="group" parent="ohVzk12qOF8JnCY6avkX-15" vertex="1" connectable="0">
          <mxGeometry x="130" width="195" height="64.17981072555204" as="geometry" />
        </mxCell>
        <mxCell id="Teg7RoeswtAmkCFHLjGa-2" value="" style="shape=curlyBracket;whiteSpace=wrap;html=1;rounded=1;labelPosition=left;verticalLabelPosition=middle;align=right;verticalAlign=middle;size=0.5;" parent="p8FZmcjDatMxW2oeOjET-4" vertex="1">
          <mxGeometry width="20" height="64.17981072555204" as="geometry" />
        </mxCell>
        <mxCell id="Teg7RoeswtAmkCFHLjGa-5" value="&lt;div style=&quot;&quot;&gt;&lt;span style=&quot;font-size: 10px; background-color: initial;&quot;&gt;Teams Information:&amp;nbsp;&lt;/span&gt;&lt;font style=&quot;font-size: 10px; background-color: initial;&quot; color=&quot;#00cc00&quot;&gt;GET&lt;/font&gt;&lt;span style=&quot;font-size: 10px; background-color: initial;&quot;&gt;&amp;nbsp;&lt;/span&gt;&lt;i style=&quot;font-size: 10px; background-color: initial;&quot;&gt;&lt;font color=&quot;#b3b3b3&quot;&gt;/teams&lt;/font&gt;&lt;/i&gt;&lt;/div&gt;&lt;div style=&quot;&quot;&gt;&lt;font style=&quot;font-size: 10px;&quot;&gt;Teams Seasons:&amp;nbsp;&lt;font color=&quot;#00cc00&quot;&gt;GET&lt;/font&gt;&amp;nbsp;&lt;i&gt;&lt;font color=&quot;#b3b3b3&quot;&gt;/teams/seasons&lt;/font&gt;&lt;/i&gt;&lt;/font&gt;&lt;/div&gt;" style="text;html=1;align=left;verticalAlign=middle;whiteSpace=wrap;rounded=0;" parent="p8FZmcjDatMxW2oeOjET-4" vertex="1">
          <mxGeometry x="20" y="19.13545741324921" width="175" height="25.918769716088327" as="geometry" />
        </mxCell>
        <mxCell id="vb-eY74XwMz0SV86NSJM-14" value="" style="rounded=0;whiteSpace=wrap;html=1;fillColor=none;strokeColor=#B3B3B3;" parent="1" vertex="1">
          <mxGeometry x="419" y="760" width="390" height="110" as="geometry" />
        </mxCell>
        <mxCell id="vb-eY74XwMz0SV86NSJM-1" value="" style="rounded=0;whiteSpace=wrap;html=1;fillColor=none;strokeColor=#B3B3B3;" parent="1" vertex="1">
          <mxGeometry x="18" y="470" width="790" height="240" as="geometry" />
        </mxCell>
        <mxCell id="Teg7RoeswtAmkCFHLjGa-10" value="" style="rounded=0;whiteSpace=wrap;html=1;fillColor=none;strokeColor=#B3B3B3;" parent="1" vertex="1">
          <mxGeometry x="19" y="760" width="360" height="110" as="geometry" />
        </mxCell>
        <mxCell id="Teg7RoeswtAmkCFHLjGa-9" value="" style="rounded=0;whiteSpace=wrap;html=1;fillColor=none;strokeColor=#B3B3B3;" parent="1" vertex="1">
          <mxGeometry x="20" y="80" width="790" height="340" as="geometry" />
        </mxCell>
        <mxCell id="ohVzk12qOF8JnCY6avkX-7" value="Venues" style="rounded=0;whiteSpace=wrap;html=1;strokeColor=#B3B3B3;" parent="1" vertex="1">
          <mxGeometry x="58" y="750" width="90" height="20" as="geometry" />
        </mxCell>
        <mxCell id="ohVzk12qOF8JnCY6avkX-9" value="Fixtures" style="rounded=0;whiteSpace=wrap;html=1;strokeColor=#B3B3B3;" parent="1" vertex="1">
          <mxGeometry x="57" y="460" width="90" height="20" as="geometry" />
        </mxCell>
        <mxCell id="ohVzk12qOF8JnCY6avkX-10" value="Injuries" style="rounded=0;whiteSpace=wrap;html=1;strokeColor=#B3B3B3;" parent="1" vertex="1">
          <mxGeometry x="454" y="750" width="90" height="20" as="geometry" />
        </mxCell>
        <mxCell id="ohVzk12qOF8JnCY6avkX-13" value="Teams &amp;amp; Players" style="rounded=0;whiteSpace=wrap;html=1;strokeColor=#B3B3B3;" parent="1" vertex="1">
          <mxGeometry x="53.25" y="70" width="101.5" height="20" as="geometry" />
        </mxCell>
        <mxCell id="ohVzk12qOF8JnCY6avkX-18" value="" style="group" parent="1" vertex="1" connectable="0">
          <mxGeometry x="440" y="97.5" width="325" height="92.5" as="geometry" />
        </mxCell>
        <mxCell id="Q5s80DPNSSyLN-fSbm4z-55" value="" style="group" parent="ohVzk12qOF8JnCY6avkX-18" vertex="1" connectable="0">
          <mxGeometry y="2.5" width="120" height="90" as="geometry" />
        </mxCell>
        <mxCell id="Q5s80DPNSSyLN-fSbm4z-56" value="&lt;font size=&quot;1&quot; style=&quot;&quot;&gt;Estatística Geral do Time na Premier League&lt;/font&gt;" style="rounded=0;whiteSpace=wrap;html=1;shadow=1;fillColor=#fff2cc;strokeColor=#d6b656;" parent="Q5s80DPNSSyLN-fSbm4z-55" vertex="1">
          <mxGeometry width="120" height="60" as="geometry" />
        </mxCell>
        <mxCell id="Q5s80DPNSSyLN-fSbm4z-57" value="&lt;b style=&quot;color: rgb(179, 179, 179); font-size: 9px;&quot;&gt;PLTeamStatistics&lt;/b&gt;" style="text;html=1;align=center;verticalAlign=middle;whiteSpace=wrap;rounded=0;" parent="Q5s80DPNSSyLN-fSbm4z-55" vertex="1">
          <mxGeometry y="60" width="120" height="20" as="geometry" />
        </mxCell>
        <mxCell id="Teg7RoeswtAmkCFHLjGa-8" value="&lt;div style=&quot;&quot;&gt;&lt;span style=&quot;font-size: 10px; background-color: initial;&quot;&gt;Teams Statistics:&amp;nbsp;&lt;/span&gt;&lt;font style=&quot;font-size: 10px; background-color: initial;&quot; color=&quot;#00cc00&quot;&gt;GET&lt;/font&gt;&lt;span style=&quot;font-size: 10px; background-color: initial;&quot;&gt;&amp;nbsp;&lt;/span&gt;&lt;i style=&quot;font-size: 10px; background-color: initial;&quot;&gt;&lt;font color=&quot;#b3b3b3&quot;&gt;/teams/statistics&lt;/font&gt;&lt;/i&gt;&lt;/div&gt;" style="text;html=1;align=left;verticalAlign=middle;whiteSpace=wrap;rounded=0;" parent="ohVzk12qOF8JnCY6avkX-18" vertex="1">
          <mxGeometry x="150" y="27.5" width="175" height="10" as="geometry" />
        </mxCell>
        <mxCell id="-ybzW1VdOYld_kp5rvVr-13" value="" style="shape=curlyBracket;whiteSpace=wrap;html=1;rounded=1;labelPosition=left;verticalLabelPosition=middle;align=right;verticalAlign=middle;size=0.5;" parent="ohVzk12qOF8JnCY6avkX-18" vertex="1">
          <mxGeometry x="130" width="20" height="65" as="geometry" />
        </mxCell>
        <mxCell id="ujfcufFeTod3XDQKrpfq-2" value="" style="group" parent="1" vertex="1" connectable="0">
          <mxGeometry x="440" y="210" width="120" height="90" as="geometry" />
        </mxCell>
        <mxCell id="ujfcufFeTod3XDQKrpfq-3" value="&lt;font size=&quot;1&quot; style=&quot;&quot;&gt;Estatística Geral do Jogador na Premier League&lt;/font&gt;" style="rounded=0;whiteSpace=wrap;html=1;shadow=1;fillColor=#fff2cc;strokeColor=#d6b656;" parent="ujfcufFeTod3XDQKrpfq-2" vertex="1">
          <mxGeometry width="120" height="60" as="geometry" />
        </mxCell>
        <mxCell id="ujfcufFeTod3XDQKrpfq-4" value="&lt;b style=&quot;color: rgb(179, 179, 179); font-size: 9px;&quot;&gt;PLPlayerStatistics&lt;/b&gt;" style="text;html=1;align=center;verticalAlign=middle;whiteSpace=wrap;rounded=0;" parent="ujfcufFeTod3XDQKrpfq-2" vertex="1">
          <mxGeometry y="60" width="120" height="20" as="geometry" />
        </mxCell>
        <mxCell id="ujfcufFeTod3XDQKrpfq-5" value="&lt;div style=&quot;&quot;&gt;&lt;span style=&quot;font-size: 10px; background-color: initial;&quot;&gt;Statistics:&amp;nbsp;&lt;/span&gt;&lt;font style=&quot;font-size: 10px; background-color: initial;&quot; color=&quot;#00cc00&quot;&gt;GET&lt;/font&gt;&lt;span style=&quot;font-size: 10px; background-color: initial;&quot;&gt;&amp;nbsp;&lt;/span&gt;&lt;i style=&quot;font-size: 10px; background-color: initial;&quot;&gt;&lt;font color=&quot;#b3b3b3&quot;&gt;/players&lt;/font&gt;&lt;/i&gt;&lt;/div&gt;" style="text;html=1;align=left;verticalAlign=middle;whiteSpace=wrap;rounded=0;" parent="1" vertex="1">
          <mxGeometry x="590" y="237.61" width="175" height="10" as="geometry" />
        </mxCell>
        <mxCell id="ujfcufFeTod3XDQKrpfq-6" value="" style="shape=curlyBracket;whiteSpace=wrap;html=1;rounded=1;labelPosition=left;verticalLabelPosition=middle;align=right;verticalAlign=middle;size=0.5;" parent="1" vertex="1">
          <mxGeometry x="570" y="210" width="20" height="65" as="geometry" />
        </mxCell>
        <mxCell id="ujfcufFeTod3XDQKrpfq-8" value="" style="group" parent="1" vertex="1" connectable="0">
          <mxGeometry x="40" y="210.78999999999996" width="120" height="81.13999999999999" as="geometry" />
        </mxCell>
        <mxCell id="ujfcufFeTod3XDQKrpfq-9" value="Jogador" style="rounded=0;whiteSpace=wrap;html=1;movable=1;resizable=1;rotatable=1;deletable=1;editable=1;locked=0;connectable=1;shadow=1;fillColor=#dae8fc;strokeColor=#6c8ebf;" parent="ujfcufFeTod3XDQKrpfq-8" vertex="1">
          <mxGeometry width="120" height="60" as="geometry" />
        </mxCell>
        <mxCell id="ujfcufFeTod3XDQKrpfq-10" value="&lt;font color=&quot;#b3b3b3&quot; style=&quot;font-size: 9px;&quot;&gt;&lt;b&gt;Player&lt;/b&gt;&lt;/font&gt;" style="text;html=1;align=center;verticalAlign=middle;whiteSpace=wrap;rounded=0;" parent="ujfcufFeTod3XDQKrpfq-8" vertex="1">
          <mxGeometry x="40.5" y="61.139999999999986" width="39" height="20" as="geometry" />
        </mxCell>
        <mxCell id="ujfcufFeTod3XDQKrpfq-11" value="&lt;div style=&quot;&quot;&gt;&lt;span style=&quot;font-size: 10px; background-color: initial;&quot;&gt;Statistics:&amp;nbsp;&lt;/span&gt;&lt;font style=&quot;font-size: 10px; background-color: initial;&quot; color=&quot;#00cc00&quot;&gt;GET&lt;/font&gt;&lt;span style=&quot;font-size: 10px; background-color: initial;&quot;&gt;&amp;nbsp;&lt;/span&gt;&lt;i style=&quot;font-size: 10px; background-color: initial;&quot;&gt;&lt;font color=&quot;#b3b3b3&quot;&gt;/players&lt;/font&gt;&lt;/i&gt;&lt;/div&gt;" style="text;html=1;align=left;verticalAlign=middle;whiteSpace=wrap;rounded=0;" parent="1" vertex="1">
          <mxGeometry x="190" y="236.47000000000003" width="110" height="11.14" as="geometry" />
        </mxCell>
        <mxCell id="ujfcufFeTod3XDQKrpfq-12" value="" style="shape=curlyBracket;whiteSpace=wrap;html=1;rounded=1;labelPosition=left;verticalLabelPosition=middle;align=right;verticalAlign=middle;size=0.5;" parent="1" vertex="1">
          <mxGeometry x="170" y="210.78999999999996" width="20" height="65" as="geometry" />
        </mxCell>
        <mxCell id="ujfcufFeTod3XDQKrpfq-14" value="" style="group" parent="1" vertex="1" connectable="0">
          <mxGeometry x="39" y="780" width="250" height="82.5" as="geometry" />
        </mxCell>
        <mxCell id="Q5s80DPNSSyLN-fSbm4z-52" value="" style="group" parent="ujfcufFeTod3XDQKrpfq-14" vertex="1" connectable="0">
          <mxGeometry y="2.5" width="120" height="80" as="geometry" />
        </mxCell>
        <mxCell id="Q5s80DPNSSyLN-fSbm4z-53" value="Estádio" style="rounded=0;whiteSpace=wrap;html=1;shadow=1;fillColor=#dae8fc;strokeColor=#6c8ebf;" parent="Q5s80DPNSSyLN-fSbm4z-52" vertex="1">
          <mxGeometry width="120" height="60" as="geometry" />
        </mxCell>
        <mxCell id="Q5s80DPNSSyLN-fSbm4z-54" value="&lt;font color=&quot;#b3b3b3&quot; style=&quot;font-size: 9px;&quot;&gt;&lt;b&gt;Venue&lt;/b&gt;&lt;/font&gt;" style="text;html=1;align=center;verticalAlign=middle;whiteSpace=wrap;rounded=0;" parent="Q5s80DPNSSyLN-fSbm4z-52" vertex="1">
          <mxGeometry x="45.5" y="60" width="29" height="20" as="geometry" />
        </mxCell>
        <mxCell id="Teg7RoeswtAmkCFHLjGa-22" value="&lt;div style=&quot;&quot;&gt;&lt;span style=&quot;font-size: 10px; background-color: initial;&quot;&gt;Venues:&amp;nbsp;&lt;/span&gt;&lt;font style=&quot;font-size: 10px; background-color: initial;&quot; color=&quot;#00cc00&quot;&gt;GET&lt;/font&gt;&lt;span style=&quot;font-size: 10px; background-color: initial;&quot;&gt;&amp;nbsp;&lt;/span&gt;&lt;i style=&quot;font-size: 10px; background-color: initial;&quot;&gt;&lt;font color=&quot;#b3b3b3&quot;&gt;/venues&lt;/font&gt;&lt;/i&gt;&lt;/div&gt;" style="text;html=1;align=left;verticalAlign=middle;whiteSpace=wrap;rounded=0;" parent="ujfcufFeTod3XDQKrpfq-14" vertex="1">
          <mxGeometry x="150" y="27.5" width="100" height="10" as="geometry" />
        </mxCell>
        <mxCell id="-ybzW1VdOYld_kp5rvVr-14" value="" style="shape=curlyBracket;whiteSpace=wrap;html=1;rounded=1;labelPosition=left;verticalLabelPosition=middle;align=right;verticalAlign=middle;size=0.5;" parent="ujfcufFeTod3XDQKrpfq-14" vertex="1">
          <mxGeometry x="130" width="20" height="65" as="geometry" />
        </mxCell>
        <mxCell id="ujfcufFeTod3XDQKrpfq-21" value="" style="group" parent="1" vertex="1" connectable="0">
          <mxGeometry x="438" y="490" width="300" height="90" as="geometry" />
        </mxCell>
        <mxCell id="Q5s80DPNSSyLN-fSbm4z-42" value="" style="group" parent="ujfcufFeTod3XDQKrpfq-21" vertex="1" connectable="0">
          <mxGeometry y="1" width="120" height="89" as="geometry" />
        </mxCell>
        <mxCell id="Q5s80DPNSSyLN-fSbm4z-43" value="&lt;font style=&quot;font-size: 10px;&quot;&gt;Estatística do Time&amp;nbsp;&lt;/font&gt;&lt;div&gt;&lt;font style=&quot;font-size: 10px;&quot;&gt;em&amp;nbsp;&lt;/font&gt;&lt;span style=&quot;font-size: 10px; background-color: initial;&quot;&gt;um Jogo&lt;/span&gt;&lt;/div&gt;" style="rounded=0;whiteSpace=wrap;html=1;align=center;container=0;shadow=1;fillColor=#fff2cc;strokeColor=#d6b656;" parent="Q5s80DPNSSyLN-fSbm4z-42" vertex="1">
          <mxGeometry width="120" height="60" as="geometry" />
        </mxCell>
        <mxCell id="Q5s80DPNSSyLN-fSbm4z-44" value="&lt;b&gt;&lt;font style=&quot;font-size: 9px;&quot; color=&quot;#b3b3b3&quot;&gt;SG&lt;/font&gt;&lt;span style=&quot;font-size: 9px; color: rgb(179, 179, 179); background-color: initial;&quot;&gt;TeamStatistics&lt;/span&gt;&lt;/b&gt;" style="text;html=1;align=center;verticalAlign=middle;whiteSpace=wrap;rounded=0;container=0;" parent="Q5s80DPNSSyLN-fSbm4z-42" vertex="1">
          <mxGeometry y="60" width="120" height="20" as="geometry" />
        </mxCell>
        <mxCell id="vb-eY74XwMz0SV86NSJM-11" value="&lt;div style=&quot;text-align: left;&quot;&gt;&lt;span style=&quot;font-size: 10px; background-color: initial;&quot;&gt;Statistics:&amp;nbsp;&lt;/span&gt;&lt;font style=&quot;font-size: 10px; background-color: initial;&quot; color=&quot;#00cc00&quot;&gt;GET&lt;/font&gt;&lt;span style=&quot;font-size: 10px; background-color: initial;&quot;&gt;&amp;nbsp;&lt;/span&gt;&lt;i style=&quot;font-size: 10px; background-color: initial;&quot;&gt;&lt;font color=&quot;#b3b3b3&quot;&gt;/fixtures/statistics&lt;/font&gt;&lt;/i&gt;&lt;/div&gt;" style="text;html=1;align=center;verticalAlign=middle;whiteSpace=wrap;rounded=0;" parent="ujfcufFeTod3XDQKrpfq-21" vertex="1">
          <mxGeometry x="150" y="27.5" width="150" height="10" as="geometry" />
        </mxCell>
        <mxCell id="-ybzW1VdOYld_kp5rvVr-16" value="" style="shape=curlyBracket;whiteSpace=wrap;html=1;rounded=1;labelPosition=left;verticalLabelPosition=middle;align=right;verticalAlign=middle;size=0.5;" parent="ujfcufFeTod3XDQKrpfq-21" vertex="1">
          <mxGeometry x="130" width="20" height="65" as="geometry" />
        </mxCell>
        <mxCell id="ujfcufFeTod3XDQKrpfq-22" value="" style="group" parent="1" vertex="1" connectable="0">
          <mxGeometry x="438" y="600" width="330" height="90" as="geometry" />
        </mxCell>
        <mxCell id="Q5s80DPNSSyLN-fSbm4z-30" value="" style="group" parent="ujfcufFeTod3XDQKrpfq-22" vertex="1" connectable="0">
          <mxGeometry width="120" height="90" as="geometry" />
        </mxCell>
        <mxCell id="Q5s80DPNSSyLN-fSbm4z-31" value="&lt;font style=&quot;font-size: 10px;&quot;&gt;Estatística do Jogador&amp;nbsp;&lt;/font&gt;&lt;div&gt;&lt;font style=&quot;font-size: 10px;&quot;&gt;em um Jogo&lt;/font&gt;&lt;/div&gt;" style="rounded=0;whiteSpace=wrap;html=1;glass=0;shadow=1;fillColor=#fff2cc;strokeColor=#d6b656;" parent="Q5s80DPNSSyLN-fSbm4z-30" vertex="1">
          <mxGeometry width="120" height="60" as="geometry" />
        </mxCell>
        <mxCell id="Q5s80DPNSSyLN-fSbm4z-32" value="&lt;b&gt;&lt;font style=&quot;font-size: 9px;&quot; color=&quot;#b3b3b3&quot;&gt;SG&lt;/font&gt;&lt;span style=&quot;font-size: 9px; color: rgb(179, 179, 179); background-color: initial;&quot;&gt;PlayerStatistics&lt;/span&gt;&lt;/b&gt;" style="text;html=1;align=center;verticalAlign=middle;whiteSpace=wrap;rounded=0;" parent="Q5s80DPNSSyLN-fSbm4z-30" vertex="1">
          <mxGeometry y="60" width="120" height="20" as="geometry" />
        </mxCell>
        <mxCell id="vb-eY74XwMz0SV86NSJM-13" value="&lt;div style=&quot;text-align: left;&quot;&gt;&lt;span style=&quot;background-color: initial; font-size: 10px;&quot;&gt;Player Statistics:&amp;nbsp;&lt;/span&gt;&lt;font style=&quot;background-color: initial; font-size: 10px;&quot; color=&quot;#00cc00&quot;&gt;GET&lt;/font&gt;&lt;span style=&quot;background-color: initial; font-size: 10px;&quot;&gt;&amp;nbsp;&lt;/span&gt;&lt;i style=&quot;background-color: initial; font-size: 10px;&quot;&gt;&lt;font color=&quot;#b3b3b3&quot;&gt;/fixtures/players&lt;/font&gt;&lt;/i&gt;&lt;/div&gt;" style="text;html=1;align=center;verticalAlign=middle;whiteSpace=wrap;rounded=0;" parent="ujfcufFeTod3XDQKrpfq-22" vertex="1">
          <mxGeometry x="150" y="27.5" width="180" height="10" as="geometry" />
        </mxCell>
        <mxCell id="-ybzW1VdOYld_kp5rvVr-18" value="" style="shape=curlyBracket;whiteSpace=wrap;html=1;rounded=1;labelPosition=left;verticalLabelPosition=middle;align=right;verticalAlign=middle;size=0.5;" parent="ujfcufFeTod3XDQKrpfq-22" vertex="1">
          <mxGeometry x="130" y="1" width="20" height="65" as="geometry" />
        </mxCell>
        <mxCell id="UyP5yjYgKk6NdQrjmJSQ-1" value="" style="group" parent="1" vertex="1" connectable="0">
          <mxGeometry x="38" y="487.5" width="251" height="82.5" as="geometry" />
        </mxCell>
        <mxCell id="vb-eY74XwMz0SV86NSJM-2" value="" style="group" parent="UyP5yjYgKk6NdQrjmJSQ-1" vertex="1" connectable="0">
          <mxGeometry y="2.5" width="120" height="80" as="geometry" />
        </mxCell>
        <mxCell id="vb-eY74XwMz0SV86NSJM-3" value="Jogo" style="rounded=0;whiteSpace=wrap;html=1;shadow=1;fillColor=#dae8fc;strokeColor=#6c8ebf;" parent="vb-eY74XwMz0SV86NSJM-2" vertex="1">
          <mxGeometry width="120" height="60" as="geometry" />
        </mxCell>
        <mxCell id="vb-eY74XwMz0SV86NSJM-4" value="&lt;font size=&quot;1&quot; color=&quot;#b3b3b3&quot;&gt;&lt;b&gt;Game&lt;/b&gt;&lt;/font&gt;" style="text;html=1;align=center;verticalAlign=middle;whiteSpace=wrap;rounded=0;" parent="vb-eY74XwMz0SV86NSJM-2" vertex="1">
          <mxGeometry x="45.5" y="60" width="29" height="20" as="geometry" />
        </mxCell>
        <mxCell id="vb-eY74XwMz0SV86NSJM-6" value="&lt;div style=&quot;&quot;&gt;&lt;span style=&quot;font-size: 10px; background-color: initial;&quot;&gt;Fixtures:&amp;nbsp;&lt;/span&gt;&lt;font style=&quot;font-size: 10px; background-color: initial;&quot; color=&quot;#00cc00&quot;&gt;GET&lt;/font&gt;&lt;span style=&quot;font-size: 10px; background-color: initial;&quot;&gt;&amp;nbsp;&lt;/span&gt;&lt;i style=&quot;font-size: 10px; background-color: initial;&quot;&gt;&lt;font color=&quot;#b3b3b3&quot;&gt;/fixtures&lt;/font&gt;&lt;/i&gt;&lt;/div&gt;" style="text;html=1;align=center;verticalAlign=middle;whiteSpace=wrap;rounded=0;" parent="UyP5yjYgKk6NdQrjmJSQ-1" vertex="1">
          <mxGeometry x="151" y="27.5" width="100" height="10" as="geometry" />
        </mxCell>
        <mxCell id="-ybzW1VdOYld_kp5rvVr-15" value="" style="shape=curlyBracket;whiteSpace=wrap;html=1;rounded=1;labelPosition=left;verticalLabelPosition=middle;align=right;verticalAlign=middle;size=0.5;" parent="UyP5yjYgKk6NdQrjmJSQ-1" vertex="1">
          <mxGeometry x="131" width="20" height="65" as="geometry" />
        </mxCell>
        <mxCell id="UyP5yjYgKk6NdQrjmJSQ-2" value="" style="group" parent="1" vertex="1" connectable="0">
          <mxGeometry x="439" y="777.5" width="250" height="82.5" as="geometry" />
        </mxCell>
        <mxCell id="Q5s80DPNSSyLN-fSbm4z-36" value="" style="group" parent="UyP5yjYgKk6NdQrjmJSQ-2" vertex="1" connectable="0">
          <mxGeometry y="2.5" width="120" height="80" as="geometry" />
        </mxCell>
        <mxCell id="Q5s80DPNSSyLN-fSbm4z-37" value="Ferimento" style="rounded=0;whiteSpace=wrap;html=1;movable=1;resizable=1;rotatable=1;deletable=1;editable=1;locked=0;connectable=1;shadow=1;fillColor=#fff2cc;strokeColor=#d6b656;" parent="Q5s80DPNSSyLN-fSbm4z-36" vertex="1">
          <mxGeometry width="120" height="60" as="geometry" />
        </mxCell>
        <mxCell id="Q5s80DPNSSyLN-fSbm4z-38" value="&lt;font color=&quot;#b3b3b3&quot; style=&quot;font-size: 9px;&quot;&gt;&lt;b&gt;Injuries&lt;/b&gt;&lt;/font&gt;" style="text;html=1;align=center;verticalAlign=middle;whiteSpace=wrap;rounded=0;" parent="Q5s80DPNSSyLN-fSbm4z-36" vertex="1">
          <mxGeometry x="35.5" y="60" width="49" height="20" as="geometry" />
        </mxCell>
        <mxCell id="vb-eY74XwMz0SV86NSJM-19" value="&lt;div style=&quot;text-align: left;&quot;&gt;&lt;span style=&quot;font-size: 10px; background-color: initial;&quot;&gt;Injuries:&amp;nbsp;&lt;/span&gt;&lt;font style=&quot;font-size: 10px; background-color: initial;&quot; color=&quot;#00cc00&quot;&gt;GET&lt;/font&gt;&lt;span style=&quot;font-size: 10px; background-color: initial;&quot;&gt;&amp;nbsp;&lt;/span&gt;&lt;i style=&quot;font-size: 10px; background-color: initial;&quot;&gt;&lt;font color=&quot;#b3b3b3&quot;&gt;/injuries&lt;/font&gt;&lt;/i&gt;&lt;/div&gt;" style="text;html=1;align=center;verticalAlign=middle;whiteSpace=wrap;rounded=0;" parent="UyP5yjYgKk6NdQrjmJSQ-2" vertex="1">
          <mxGeometry x="150" y="27.5" width="100" height="10" as="geometry" />
        </mxCell>
        <mxCell id="-ybzW1VdOYld_kp5rvVr-19" value="" style="shape=curlyBracket;whiteSpace=wrap;html=1;rounded=1;labelPosition=left;verticalLabelPosition=middle;align=right;verticalAlign=middle;size=0.5;" parent="UyP5yjYgKk6NdQrjmJSQ-2" vertex="1">
          <mxGeometry x="130" width="20" height="65" as="geometry" />
        </mxCell>
        <mxCell id="E0W0B7Eq2k_03jxknP2v-1" value="Time" style="rounded=0;whiteSpace=wrap;html=1;shadow=1;fillColor=#dae8fc;strokeColor=#6c8ebf;" parent="1" vertex="1">
          <mxGeometry x="40" y="100" width="120" height="60" as="geometry" />
        </mxCell>
        <mxCell id="k6tMDIBw3VDs0ZY1gCsG-3" value="" style="group" parent="1" vertex="1" connectable="0">
          <mxGeometry x="440" y="319.99999999999994" width="290" height="72.5" as="geometry" />
        </mxCell>
        <mxCell id="KfKctYTRmm5KkG5MBRMk-1" value="&lt;font style=&quot;font-size: 10px;&quot;&gt;Histórico Times&lt;/font&gt;" style="rhombus;whiteSpace=wrap;html=1;shadow=1;fillColor=#e1d5e7;strokeColor=#9673a6;" parent="k6tMDIBw3VDs0ZY1gCsG-3" vertex="1">
          <mxGeometry y="12.500000000000057" width="120" height="40" as="geometry" />
        </mxCell>
        <mxCell id="KfKctYTRmm5KkG5MBRMk-2" value="" style="shape=curlyBracket;whiteSpace=wrap;html=1;rounded=1;labelPosition=left;verticalLabelPosition=middle;align=right;verticalAlign=middle;size=0.5;" parent="k6tMDIBw3VDs0ZY1gCsG-3" vertex="1">
          <mxGeometry x="130" width="20" height="65" as="geometry" />
        </mxCell>
        <mxCell id="KfKctYTRmm5KkG5MBRMk-3" value="&lt;div style=&quot;&quot;&gt;&lt;span style=&quot;font-size: 10px; background-color: initial;&quot;&gt;Statistics:&amp;nbsp;&lt;/span&gt;&lt;font style=&quot;font-size: 10px; background-color: initial;&quot; color=&quot;#00cc00&quot;&gt;GET&lt;/font&gt;&lt;span style=&quot;font-size: 10px; background-color: initial;&quot;&gt;&amp;nbsp;&lt;/span&gt;&lt;i style=&quot;font-size: 10px; background-color: initial;&quot;&gt;&lt;font color=&quot;#b3b3b3&quot;&gt;/players/ teams&lt;/font&gt;&lt;/i&gt;&lt;/div&gt;" style="text;html=1;align=left;verticalAlign=middle;whiteSpace=wrap;rounded=0;" parent="k6tMDIBw3VDs0ZY1gCsG-3" vertex="1">
          <mxGeometry x="150" y="26.930000000000064" width="140" height="11.14" as="geometry" />
        </mxCell>
        <mxCell id="KfKctYTRmm5KkG5MBRMk-6" value="&lt;font color=&quot;#b3b3b3&quot; style=&quot;font-size: 9px;&quot;&gt;&lt;b&gt;TeamsHistoric&lt;/b&gt;&lt;/font&gt;" style="text;html=1;align=center;verticalAlign=middle;whiteSpace=wrap;rounded=0;" parent="k6tMDIBw3VDs0ZY1gCsG-3" vertex="1">
          <mxGeometry x="40" y="52.5" width="39" height="20" as="geometry" />
        </mxCell>
      </root>
    </mxGraphModel>
  </diagram>
</mxfile>
